# xmcd
#
# Track frame offsets:
#	150
#	19152
#	36550
#	54710
#	69825
#	88772
#	112857
#	132885
#	145667
#	156555
#	175647
#	195255
#	209440
#	225477
#	239947
#	252455
#
# Disc length: 3613 seconds
#
# Revision: 1
# Processed by: cddbd v1.5.2PL0 Copyright (c) Steve Scherf et al.
# Submitted via: audiograbber 1.83.01
#
DISCID=e20e1b10
DTITLE=Neil Diamond - Top Hits Monthly Platinum Vol 36 Neil Diamond
DYEAR=1900
DGENRE=Karaoke
TTITLE0=America
TTITLE1=Brooklyn Roads
TTITLE2=Cherry, Cherry
TTITLE3=Girl, You'll Be A Woman Soon
TTITLE4=Heartlight
TTITLE5=Holly Holly
TTITLE6=I Believe In Happy Endings
TTITLE7=I'm a Believer
TTITLE8=Kentucky Woman
TTITLE9=Longellow Serenade
TTITLE10=Morningside
TTITLE11=Red Red Wine
TTITLE12=Song Sung Blue
TTITLE13=Stones
TTITLE14=Yesterday's Songs
TTITLE15=You Are the Best Part of Me
EXTD=
EXTT0=
EXTT1=
EXTT2=
EXTT3=
EXTT4=
EXTT5=
EXTT6=
EXTT7=
EXTT8=
EXTT9=
EXTT10=
EXTT11=
EXTT12=
EXTT13=
EXTT14=
EXTT15=
PLAYORDER=
